<svg width="397" height="305" viewBox="0 0 397 305" fill="none" xmlns="http://www.w3.org/2000/svg">
<g opacity="0.2">
<path d="M89.0761 76.2146C84.0991 73.8746 75.8641 77.6816 73.2451 83.2526C68.2321 93.8816 84.4411 109.281 90.3361 107.625C96.9151 105.78 98.2111 80.5166 89.0761 76.2146Z" stroke="#0F31AC" stroke-width="1.8" stroke-miterlimit="10" stroke-linecap="round" stroke-dasharray="4.5 4.5"/>
<path d="M64.182 100.298C62.409 99.2722 43.59 88.3822 32.943 97.0042C25.464 103.052 25.392 115.985 31.017 123.248C42.141 137.639 76.656 131.186 80.238 120.89C82.632 113.951 71.319 104.429 64.182 100.298Z" stroke="#0F31AC" stroke-width="1.8" stroke-miterlimit="10" stroke-linecap="round" stroke-dasharray="4.5 4.5"/>
<path d="M88.3924 278.004C134.193 266.637 186.231 255.063 267.042 257.034C312.231 258.132 322.473 244.11 356.727 226.677C387.255 211.134 402.249 180.228 393.042 162.714C383.745 145.029 355.431 152.076 332.238 125.751C321.681 113.763 323.535 105.357 317.442 92.0637C298.128 49.9707 225.75 17.0667 190.065 34.4817C142.914 57.4857 183.225 156.882 130.521 184.026C97.1854 201.198 71.9854 168.231 39.0724 193.404C22.7644 205.878 2.81142 223.365 1.27242 242.364C1.27242 242.364 -0.88758 288.804 88.3924 278.004Z" stroke="#0F31AC" stroke-width="1.8" stroke-miterlimit="10" stroke-linecap="round" stroke-dasharray="4.5 4.5"/>
<path d="M341.427 226.282C341.427 226.282 333.129 237.28 324.831 252.373C317.352 265.981 311.664 284.323 310.404 299.632C306.885 299.461 303.015 299.308 298.83 299.164C274.053 298.282 238.278 297.733 198.498 297.733C153.273 297.733 113.232 298.444 88.6261 299.542C87.7801 299.578 86.9522 299.614 86.1422 299.659C55.4252 261.589 -6.42285 195.268 50.4932 167.98C50.4932 167.98 54.6602 166.711 60.9151 163.984C80.6972 155.344 121.359 132.115 116.841 88.2938C116.841 88.2938 115.302 80.1218 115.302 68.7458C115.302 42.1418 123.726 -1.94921 179.94 0.0667913C213.987 1.29079 245.343 18.6158 264.297 46.3448C282.891 73.5428 312.618 107.005 336.837 87.9068C342.426 83.4968 349.815 81.8588 356.718 83.8028C374.142 88.6808 393.933 114.025 341.427 226.282Z" fill="#ACBCF8"/>
</g>
<path opacity="0.15" d="M386.643 301.116C386.643 302.916 302.412 304.374 198.498 304.374C139.872 304.374 87.5008 303.906 52.9948 303.177C45.0478 303.006 38.0458 302.826 32.1418 302.637C28.2448 302.511 24.8248 302.376 21.9178 302.241C14.4388 301.89 10.3528 301.512 10.3528 301.116C10.3528 300.612 16.9858 300.135 28.8208 299.703C33.6718 299.532 39.3868 299.361 45.8848 299.208C80.0578 298.389 135.687 297.858 198.498 297.858C253.749 297.858 303.447 298.272 337.863 298.929C368.175 299.505 386.643 300.27 386.643 301.116Z" fill="#040C2B"/>
<path d="M162.876 112.642L180.309 141.703C180.966 142.801 180.615 144.232 179.508 144.889L153.804 160.306C152.706 160.963 151.275 160.612 150.618 159.505L129.981 125.098C129.324 124 129.675 122.569 130.782 121.912L150.996 109.789L151.212 109.843L162.876 112.642Z" fill="#E3E9F7"/>
<path opacity="0.1" d="M162.875 112.642L157.151 116.071C156.251 116.611 155.09 116.314 154.559 115.423L151.211 109.834L162.875 112.642Z" fill="black"/>
<path d="M154.586 137.804L154.037 136.895C153.56 136.103 153.317 135.32 153.308 134.528C153.299 133.745 153.542 132.755 154.037 131.558C154.532 130.424 154.802 129.578 154.847 129.029C154.892 128.48 154.766 127.967 154.487 127.49C154.163 126.959 153.722 126.671 153.164 126.626C152.606 126.581 151.967 126.77 151.256 127.202C150.023 127.94 148.862 129.191 147.764 130.937L144.803 129.038C146.018 126.914 147.656 125.231 149.708 123.998C151.4 122.981 152.993 122.585 154.478 122.792C155.963 123.008 157.115 123.791 157.925 125.15C158.465 126.059 158.726 126.959 158.717 127.859C158.699 128.768 158.366 129.974 157.709 131.486C157.268 132.539 157.034 133.286 157.007 133.718C156.98 134.15 157.115 134.609 157.412 135.104L157.853 135.842L154.586 137.804ZM156.719 142.259C156.305 141.566 156.179 140.936 156.332 140.36C156.494 139.784 156.926 139.289 157.628 138.857C158.312 138.452 158.951 138.308 159.536 138.452C160.13 138.587 160.625 138.992 161.03 139.667C161.417 140.315 161.534 140.945 161.381 141.539C161.228 142.142 160.814 142.646 160.139 143.051C159.446 143.465 158.807 143.6 158.204 143.465C157.619 143.33 157.124 142.925 156.719 142.259Z" fill="#CDD7FB"/>
<path d="M342.256 111.783L352.678 144.714C353.074 145.965 352.381 147.297 351.13 147.684L322.006 156.9C320.755 157.296 319.423 156.603 319.036 155.352L306.697 116.355C306.301 115.104 306.994 113.772 308.245 113.385L331.159 106.131L331.357 106.23L342.256 111.783Z" fill="#E3E9F7"/>
<path opacity="0.1" d="M342.256 111.784L335.776 113.836C334.759 114.16 333.679 113.593 333.355 112.576L331.348 106.24L342.256 111.784Z" fill="black"/>
<path d="M339.718 136.194L335.839 137.427L330.187 132.54L328.378 139.785L324.733 140.937L327.433 130.983L319.999 124.791L323.752 123.603L329.035 128.283L330.601 121.443L334.264 120.282L331.744 129.831L339.718 136.194Z" fill="#CDD7FB"/>
<path d="M240.159 56.8205L229.53 89.6885C229.125 90.9305 227.793 91.6145 226.551 91.2185L197.481 81.8225C196.239 81.4175 195.555 80.0855 195.951 78.8435L208.533 39.9275C208.938 38.6855 210.27 38.0015 211.512 38.3975L234.381 45.7865L234.48 45.9845L240.159 56.8205Z" fill="#E3E9F7"/>
<path opacity="0.1" d="M240.158 56.8204L233.687 54.7324C232.67 54.4084 232.121 53.3194 232.445 52.3024L234.488 45.9844L240.158 56.8204Z" fill="black"/>
<path d="M220.458 76.6285L218.001 75.8365L216.543 72.2635L213.276 74.3065L210.972 73.5595L215.58 70.8235L213.582 66.2065L215.958 66.9715L217.281 70.3465L220.296 68.3756L222.618 69.1225L218.235 71.7685L220.458 76.6285Z" fill="#CDD7FB"/>
<path d="M233.255 59.1066L210.791 51.8436C210.521 51.7536 210.377 51.4656 210.458 51.2046C210.548 50.9346 210.836 50.7906 211.097 50.8716L233.561 58.1346C233.831 58.2246 233.975 58.5126 233.894 58.7736C233.813 59.0526 233.525 59.1966 233.255 59.1066Z" fill="#CDD7FB"/>
<path d="M232.499 61.5631L210.035 54.3002C209.765 54.2102 209.621 53.9221 209.702 53.6611C209.792 53.3911 210.08 53.2471 210.341 53.3281L232.805 60.5911C233.075 60.6811 233.219 60.9692 233.138 61.2302C233.057 61.5002 232.769 61.6441 232.499 61.5631Z" fill="#CDD7FB"/>
<path d="M231.744 64.0109L209.28 56.7479C209.01 56.6579 208.866 56.3699 208.947 56.1089C209.037 55.8389 209.325 55.6949 209.586 55.7759L232.05 63.0389C232.32 63.1289 232.464 63.4169 232.383 63.6779C232.302 63.9569 232.014 64.1009 231.744 64.0109Z" fill="#CDD7FB"/>
<path d="M230.988 66.4674L208.524 59.2044C208.254 59.1144 208.11 58.8264 208.191 58.5654C208.281 58.2954 208.569 58.1514 208.83 58.2324L231.294 65.4954C231.564 65.5854 231.708 65.8734 231.627 66.1344C231.546 66.4044 231.258 66.5484 230.988 66.4674Z" fill="#CDD7FB"/>
<path d="M230.043 68.8713L207.579 61.6083C207.309 61.5183 207.165 61.2303 207.246 60.9693C207.336 60.6993 207.624 60.5553 207.885 60.6363L230.349 67.8993C230.619 67.9893 230.763 68.2773 230.682 68.5383C230.601 68.8083 230.313 68.9523 230.043 68.8713Z" fill="#CDD7FB"/>
<path d="M86.2763 194.324L73.0913 226.256C72.5873 227.462 71.2103 228.038 69.9953 227.543L41.7623 215.879C40.5563 215.375 39.9803 213.998 40.4753 212.783L56.0903 174.974C56.5943 173.768 57.9713 173.192 59.1863 173.687L81.3983 182.858L81.4883 183.065L86.2763 194.324Z" fill="#E3E9F7"/>
<path opacity="0.1" d="M86.276 194.323L79.994 191.731C79.013 191.326 78.545 190.192 78.95 189.211L81.488 183.073L86.276 194.323Z" fill="black"/>
<path d="M65.0814 212.511L62.6874 211.521L61.5174 207.849L58.0974 209.631L55.8564 208.704L60.6624 206.337L59.0424 201.585L61.3554 202.539L62.4085 206.013L65.5674 204.285L67.8264 205.221L63.2544 207.516L65.0814 212.511Z" fill="#CDD7FB"/>
<path d="M79.2208 196.061L57.3958 187.043C57.1348 186.935 57.0088 186.638 57.1168 186.377C57.2248 186.116 57.5218 185.99 57.7828 186.098L79.6078 195.116C79.8688 195.224 79.9948 195.521 79.8868 195.782C79.7788 196.043 79.4818 196.169 79.2208 196.061Z" fill="#CDD7FB"/>
<path d="M78.2758 198.446L56.4508 189.428C56.1898 189.32 56.0638 189.023 56.1718 188.762C56.2798 188.501 56.5768 188.375 56.8378 188.483L78.6628 197.501C78.9238 197.609 79.0498 197.906 78.9418 198.167C78.8338 198.428 78.5368 198.554 78.2758 198.446Z" fill="#CDD7FB"/>
<path d="M77.3309 200.831L55.5059 191.813C55.2449 191.705 55.1189 191.408 55.2269 191.147C55.3349 190.886 55.6319 190.76 55.8929 190.868L77.7179 199.886C77.9789 199.994 78.1049 200.291 77.9969 200.552C77.8889 200.813 77.5919 200.939 77.3309 200.831Z" fill="#CDD7FB"/>
<path d="M76.3766 203.216L54.5516 194.198C54.2906 194.09 54.1646 193.793 54.2726 193.532C54.3806 193.271 54.6776 193.145 54.9386 193.253L76.7636 202.271C77.0246 202.379 77.1506 202.676 77.0426 202.937C76.9436 203.198 76.6376 203.324 76.3766 203.216Z" fill="#CDD7FB"/>
<path d="M75.2516 205.539L53.4266 196.521C53.1656 196.413 53.0396 196.116 53.1476 195.855C53.2556 195.594 53.5526 195.468 53.8136 195.576L75.6386 204.594C75.8996 204.702 76.0256 204.999 75.9176 205.26C75.8096 205.521 75.5126 205.647 75.2516 205.539Z" fill="#CDD7FB"/>
<path d="M182.595 200.813V189.896C182.595 187.538 184.242 185.621 186.267 185.621H224.616C226.641 185.621 228.288 187.529 228.288 189.896V205.277V221.189V299.624H107.472V213.125C107.472 208.796 110.487 205.277 114.213 205.277H178.761C180.885 205.277 182.595 203.279 182.595 200.813Z" fill="#829CF8"/>
<path d="M212.448 250.286C212.448 251.159 213.213 251.852 214.14 251.852C214.176 251.852 214.212 251.852 214.248 251.852L218.199 251.618L218.901 249.008C217.11 249.044 214.896 249.359 212.448 250.286Z" fill="#DE995F"/>
<path d="M228.324 299.625H107.517L90.5522 224.574C89.6972 220.785 92.1542 217.077 95.5202 217.077H205.707C208.038 217.077 210.081 218.904 210.675 221.532L228.324 299.625Z" fill="#ACBCF8"/>
<path d="M145.353 271.195H151.572L155.622 261.475L163.524 271.195H169.356L158.205 257.938L163.722 245.491H157.71L154.002 254.734L146.739 245.491H140.871L151.464 258.235L145.353 271.195Z" fill="white"/>
<path d="M226.488 205.221L222.501 207.327L218.559 201.567C213.015 199.479 211.431 191.235 211.431 191.235C211.062 188.418 211.53 186.933 212.322 186.213C212.862 185.718 213.564 185.583 214.239 185.619C215.607 185.691 216.831 186.474 217.506 187.662L220.944 193.638L220.8 189.903C220.764 189.066 221.421 188.382 222.159 188.382C222.267 188.382 222.375 188.4 222.492 188.427C223.14 190.965 223.176 194.07 223.095 196.212C223.041 197.724 222.924 198.759 222.924 198.759L225.678 202.845L226.488 205.221Z" fill="#DE995F"/>
<path d="M241.302 223.102L237.783 224.857L236.838 225.325C236.793 225.343 236.757 225.37 236.712 225.388C236.514 225.478 236.316 225.559 236.109 225.622C235.947 225.676 235.785 225.721 235.623 225.748C235.227 225.838 234.822 225.874 234.426 225.865C234.345 225.865 234.264 225.856 234.192 225.856C233.913 225.838 233.643 225.793 233.373 225.73C232.158 225.442 231.051 224.722 230.304 223.615L226.047 217.333L216.939 203.905C216.822 203.734 216.885 203.5 217.065 203.41L221.709 201.106H221.718L225.12 199.414C225.273 199.342 225.453 199.387 225.552 199.522L234.93 212.671C234.975 212.734 235.02 212.806 235.065 212.869C235.596 213.625 236.091 214.399 236.541 215.2C236.766 215.596 236.982 216.001 237.18 216.415C237.738 217.558 238.665 218.71 239.817 219.835C239.97 219.979 240.123 220.132 240.285 220.276C240.321 220.312 240.438 220.546 240.564 220.861C240.708 221.212 240.888 221.662 241.032 222.067C241.158 222.427 241.257 222.742 241.293 222.931C241.311 223.021 241.32 223.084 241.302 223.102Z" fill="white"/>
<path opacity="0.1" d="M223.086 196.221C219.576 194.151 217.632 191.802 216.624 189.552C216.453 189.876 216.273 190.2 216.075 190.533C216.075 190.533 212.313 190.839 212.322 186.222C212.862 185.727 213.564 185.592 214.239 185.628C215.607 185.7 216.831 186.483 217.506 187.671L220.944 193.647L220.8 189.912C220.764 189.075 221.421 188.391 222.159 188.391C222.267 188.391 222.375 188.409 222.492 188.436C223.14 190.974 223.167 194.079 223.086 196.221Z" fill="black"/>
<path d="M242.463 184.485L241.518 196.689C241.518 196.689 239.358 196.194 236.865 195.78C234.084 195.321 230.889 194.979 229.791 195.573L234.759 182.19L235.92 179.067C235.911 179.067 237.72 184.251 242.463 184.485Z" fill="#CC8B5B"/>
<path opacity="0.1" d="M236.856 195.779C234.075 195.32 230.88 194.978 229.782 195.572L234.75 182.189L235.263 182.297L236.856 195.779Z" fill="black"/>
<path d="M216.588 179.067C216.588 179.067 210.297 191.829 230.124 197.967C230.124 197.967 237.423 200.487 234.588 182.595C234.597 182.595 229.872 165.909 216.588 179.067Z" fill="#DE995F"/>
<path d="M218.406 181.695C218.406 181.695 218.577 185.124 216.075 189.273C216.075 189.273 208.317 189.912 215.13 175.638C215.13 175.638 220.215 163.596 233.76 173.406C233.76 173.406 236.928 181.884 238.143 182.514L234.408 183.135C234.408 183.135 228.072 176.196 227.289 183.135C227.289 183.135 227.802 185.844 229.359 187.203L228.756 188.319L225.48 186.087C225.471 186.087 221.079 181.137 218.406 181.695Z" fill="black"/>
<path d="M258.591 287.534C258.591 287.534 261.525 289.451 261.354 293.6V298.541L256.611 298.82C255.495 298.883 254.55 298.064 254.55 297.029C254.55 297.029 250.671 299.819 245.928 300.854C245.928 300.854 239.574 302.069 235.749 299.342C235.164 298.919 235.011 298.154 235.416 297.587C236.01 296.75 237.648 295.706 241.941 295.175C242.337 295.13 242.706 294.995 243.039 294.797C244.155 294.122 246.855 292.304 250.113 288.695L258.591 287.534Z" fill="#040C2B"/>
<path d="M300.54 279.597C300.54 279.597 305.112 281.91 306.615 284.34L304.347 289.479C303.897 290.496 302.61 290.964 301.53 290.487C301.53 290.487 301.611 296.337 297.759 300.252C297.471 300.54 297.084 300.729 296.661 300.792C294.87 301.035 289.668 301.521 285.312 299.901C285.312 299.901 281.775 297.588 288.93 295.995C288.93 295.995 293.934 295.68 293.502 290.892L293.16 285.393L297.471 280.209L300.54 279.597Z" fill="#040C2B"/>
<path d="M276.609 225.082C276.609 225.082 276.339 226.252 275.574 228.133C275.223 228.988 274.773 229.996 274.197 231.112C272.343 234.703 269.184 239.401 264.018 243.73C260.877 246.358 256.998 248.851 252.21 250.885C251.355 251.245 250.905 252.109 251.121 252.955C251.94 256.159 253.848 264.394 255.126 275.455C255.189 276.013 255.324 276.562 255.513 277.093L259.662 288.541L258.456 288.604L246.162 289.288L238.836 254.755C238.836 254.755 235.821 245.584 245.046 238.249C245.046 238.249 256.179 229.321 261.264 226.081C261.678 225.82 262.056 225.595 262.38 225.406L269.796 225.235L276.609 225.082Z" fill="#081956"/>
<path opacity="0.1" d="M251.13 252.948C251.949 256.152 253.857 264.387 255.135 275.448C255.198 276.006 255.333 276.555 255.522 277.086L259.671 288.534L258.465 288.597L254.541 276.753L251.094 257.133C248.763 250.437 251.868 249.879 251.868 249.879C254.802 249.24 263.163 243.102 263.163 243.102L267.852 231.492L274.206 231.105C271.218 236.883 264.891 245.505 252.219 250.878C251.373 251.238 250.914 252.111 251.13 252.948Z" fill="black"/>
<path d="M301.665 280.11C301.665 280.11 301.485 280.551 301.152 281.262C299.973 283.8 296.904 289.83 293.529 291.9L264.198 280.362C264.198 280.362 252.039 275.016 258.249 262.254L264.036 243.732L268.725 228.729L269.814 225.237L270.759 222.213L283.008 214.716C283.008 214.716 285.438 216.993 287.31 220.737C287.319 220.755 287.328 220.764 287.328 220.782C289.425 224.976 290.82 231.006 287.319 237.693L269.553 266.88L301.665 280.11Z" fill="#081956"/>
<path opacity="0.1" d="M287.291 220.737C283.07 224.949 279.092 227.136 275.573 228.135C273.008 228.864 270.686 228.954 268.706 228.729C264.278 228.234 261.56 226.164 261.56 226.164L261.263 226.074C261.677 225.813 262.055 225.588 262.379 225.399L269.795 225.228L270.74 222.204L282.989 214.707C282.989 214.716 285.419 216.993 287.291 220.737Z" fill="black"/>
<path d="M251.895 196.652L250.158 200.756L248.844 203.861L244.083 215.093L242.049 219.89L241.356 221.528L241.104 222.113L241.041 222.068L240.564 221.69L239.43 220.799L233.157 215.876C233.823 214.949 234.462 213.932 235.065 212.87C235.218 212.6 235.371 212.321 235.524 212.042C237.27 208.811 238.737 205.247 239.754 202.502C239.925 202.034 240.087 201.584 240.24 201.17C240.951 199.172 241.347 197.858 241.347 197.858L248.88 197.003L251.895 196.652Z" fill="white"/>
<path opacity="0.1" d="M250.158 200.505V200.757L248.844 203.862L244.083 215.094L242.049 219.891L241.356 221.529L241.104 222.114L241.041 222.069C241.167 222.429 241.266 222.744 241.302 222.933C241.32 223.032 241.32 223.095 241.302 223.113L237.783 224.868L239.43 220.8L239.826 219.828L242.211 213.924L242.778 208.938L240.249 201.162C240.96 199.164 241.356 197.85 241.356 197.85L248.889 196.995C248.961 199.047 249.195 200.739 250.158 200.505Z" fill="black"/>
<path d="M214.023 263.225C215.22 264.386 217.038 264.953 219.783 263.603C219.783 263.603 226.623 260.633 227.712 255.152L233.535 249.77L228.36 244.748L223.572 249.572C223.572 249.572 221.763 248.942 218.91 249.005L218.208 251.615L219.09 251.561L214.122 256.313C212.16 258.185 212.088 261.335 214.023 263.225Z" fill="#DE995F"/>
<path d="M286.986 220.133C286.986 220.133 275.07 231.878 261.183 226.127L249.618 214.715C249.618 214.715 244.146 208.136 241.176 202.637C240.231 200.891 239.502 197.543 239.313 196.256L240.186 193.502L241.851 184.565C241.851 184.565 255.639 183.485 264.153 192.062C265.926 193.853 267.879 195.491 269.931 197.003C275.097 200.81 284.16 208.874 286.986 220.133Z" fill="white"/>
<path opacity="0.1" d="M244.515 207.965C244.515 207.965 241.464 200.018 245.343 194.123L248.592 207.965H244.515Z" fill="black"/>
<path opacity="0.1" d="M253.056 218.108L256.296 207.695C257.403 204.131 257.115 199.64 256.764 198.083C255.954 194.483 252.075 187.868 244.74 194.339C245.118 195.689 245.496 197.03 245.883 198.38C247.332 203.51 248.772 208.631 250.221 213.761V218.144L251.607 216.677L253.056 218.108Z" fill="black"/>
<path d="M233.319 236.09L225.696 246.683L231.906 252.263C231.906 252.263 243.93 239.438 246.864 233.777L255.747 207.587C256.638 204.95 256.962 202.142 256.62 199.379C256.197 195.905 254.685 192.053 250.23 191.342C250.23 191.342 241.176 190.946 244.191 203.861L244.623 209.207L239.79 223.481L233.319 236.09Z" fill="white"/>
<path opacity="0.1" d="M250.221 251.642C250.221 251.642 244.785 250.202 242.895 245.9C242.895 245.9 244.704 251.804 250.221 251.642Z" fill="black"/>
<path opacity="0.1" d="M250.221 253.757C250.221 253.757 244.839 254.63 242.85 253.757C242.85 253.757 246.81 255.593 250.221 253.757Z" fill="black"/>
<path opacity="0.1" d="M269.58 266.916C269.58 266.916 266.133 266.673 261.561 269.625C261.561 269.625 265.269 266.277 269.58 266.916Z" fill="black"/>
<path opacity="0.1" d="M269.58 266.835C269.58 266.835 263.712 269.544 263.199 271.461C263.199 271.461 262.335 269.229 269.58 266.835Z" fill="black"/>
<path opacity="0.1" d="M301.665 280.109C301.665 280.109 301.485 280.55 301.152 281.261L268.599 266.843L284.07 240.923C291.657 229.358 286.509 221.501 286.509 221.501L287.31 220.781C289.407 224.975 290.802 231.005 287.301 237.692L269.535 266.879L301.665 280.109Z" fill="black"/>
<path d="M252.066 161.413H262.785C266.898 161.413 270.237 158.074 270.237 153.961V150.118C270.237 146.005 266.898 142.666 262.785 142.666H252.066C247.953 142.666 244.614 146.005 244.614 150.118V153.961C244.614 158.074 247.953 161.413 252.066 161.413Z" fill="white"/>
<path d="M254.451 159.9H260.4C260.4 159.9 259.869 164.688 254.451 167.064C254.451 167.064 257.304 162.87 254.451 159.9Z" fill="white"/>
<path d="M255.964 153.897V153.33C255.964 152.835 256.072 152.412 256.279 152.052C256.486 151.692 256.873 151.305 257.431 150.891C257.971 150.504 258.322 150.198 258.493 149.955C258.664 149.712 258.754 149.442 258.754 149.145C258.754 148.812 258.628 148.56 258.385 148.389C258.142 148.218 257.8 148.128 257.359 148.128C256.594 148.128 255.721 148.38 254.731 148.884L253.894 147.201C255.037 146.562 256.243 146.238 257.521 146.238C258.574 146.238 259.411 146.49 260.032 146.994C260.653 147.498 260.968 148.173 260.968 149.019C260.968 149.586 260.842 150.072 260.581 150.477C260.329 150.882 259.843 151.35 259.123 151.854C258.628 152.214 258.322 152.493 258.187 152.682C258.061 152.871 257.989 153.123 257.989 153.429V153.888H255.964V153.897ZM255.721 156.525C255.721 156.093 255.838 155.769 256.063 155.553C256.297 155.337 256.63 155.22 257.071 155.22C257.494 155.22 257.827 155.337 258.061 155.562C258.295 155.787 258.412 156.111 258.412 156.525C258.412 156.93 258.295 157.245 258.061 157.479C257.827 157.713 257.494 157.83 257.08 157.83C256.648 157.83 256.315 157.713 256.081 157.488C255.838 157.263 255.721 156.939 255.721 156.525Z" fill="#ACBCF8"/>
</svg>
