<svg width="18" height="19" viewBox="0 0 18 19" fill="none" xmlns="http://www.w3.org/2000/svg">
<path d="M15.5 15.9538C14.9309 15.9538 14.4705 15.5047 14.3776 14.9432C13.9774 12.5253 12.6562 11.4072 11.646 10.5554C10.9141 9.93821 10.5 9.56216 10.5 9.02051C10.5 8.47885 10.9141 8.1028 11.646 7.48563C12.6562 6.63385 13.9774 5.51576 14.3776 3.09779C14.4705 2.53631 14.9309 2.08717 15.5 2.08717C15.6326 2.08717 15.7598 2.03098 15.8536 1.93096C15.9473 1.83095 16 1.69529 16 1.55384C16 1.41239 15.9473 1.27674 15.8536 1.17672C15.7598 1.0767 15.6326 1.02051 15.5 1.02051H2.5C2.36739 1.02051 2.24021 1.0767 2.14645 1.17672C2.05268 1.27674 2 1.41239 2 1.55384C2 1.69529 2.05268 1.83095 2.14645 1.93096C2.24021 2.03098 2.36739 2.08717 2.5 2.08717C3.06911 2.08717 3.52952 2.53631 3.62244 3.09779C4.02261 5.51576 5.34376 6.63385 6.354 7.48563C7.08595 8.1028 7.5 8.47885 7.5 9.02051C7.5 9.56216 7.08595 9.93821 6.354 10.5554C5.34376 11.4072 4.02261 12.5253 3.62244 14.9432C3.52952 15.5047 3.06911 15.9538 2.5 15.9538C2.36739 15.9538 2.24021 16.01 2.14645 16.1101C2.05268 16.2101 2 16.3457 2 16.4872C2 16.6286 2.05268 16.7643 2.14645 16.8643C2.24021 16.9643 2.36739 17.0205 2.5 17.0205H15.5C15.6326 17.0205 15.7598 16.9643 15.8536 16.8643C15.9473 16.7643 16 16.6286 16 16.4872C16 16.3457 15.9473 16.2101 15.8536 16.1101C15.7598 16.01 15.6326 15.9538 15.5 15.9538Z" fill="url(#paint0_linear_1761_16634)"/>
<defs>
<linearGradient id="paint0_linear_1761_16634" x1="9" y1="1.02051" x2="9" y2="17.0205" gradientUnits="userSpaceOnUse">
<stop stop-color="#4285FA"/>
<stop offset="1" stop-color="#8DB5FA"/>
</linearGradient>
</defs>
</svg>
