<svg width="30" height="30" viewBox="0 0 30 30" fill="none" xmlns="http://www.w3.org/2000/svg">
<g clip-path="url(#clip0_1761_16073)">
<path d="M7.90316 29.2977C6.78919 29.2852 5.68571 29.0809 4.64113 28.6937C3.87834 28.4118 3.1882 27.9629 2.62118 27.3799C2.03664 26.814 1.58711 26.1237 1.30598 25.3603C0.919087 24.3157 0.715067 23.2123 0.702874 22.0985C0.617321 20.2469 0.600098 19.6915 0.600098 14.9996C0.600098 10.3077 0.619015 9.75434 0.702027 7.90126C0.715699 6.78787 0.91997 5.68506 1.30598 4.64064C1.58848 3.87773 2.03738 3.18731 2.62005 2.61956C3.18637 2.03555 3.87683 1.58644 4.64029 1.30549C5.68486 0.918278 6.78835 0.71397 7.90231 0.701539C9.75454 0.616833 10.3108 0.599609 15.0001 0.599609C19.6894 0.599609 20.2454 0.618527 22.0984 0.701539C23.2121 0.715114 24.3152 0.919387 25.3599 1.30549C26.123 1.58681 26.8133 2.03577 27.3799 2.61928C27.9636 3.18603 28.4127 3.87648 28.6942 4.6398C29.0815 5.68435 29.2859 6.78784 29.2984 7.90182C29.3832 9.7549 29.4004 10.3097 29.4004 15.0002C29.4004 19.6906 29.3832 20.2454 29.2984 22.0985C29.285 23.2123 29.0806 24.3156 28.6942 25.3603C28.4019 26.1179 27.9542 26.8059 27.38 27.38C26.8057 27.9541 26.1176 28.4016 25.3599 28.6937C24.3154 29.081 23.2119 29.2854 22.0979 29.298C20.2465 29.3827 19.69 29.3999 14.9995 29.3999C10.3091 29.3999 9.75426 29.3835 7.90287 29.298" fill="url(#paint0_radial_1761_16073)"/>
<path d="M7.90316 29.2977C6.78919 29.2852 5.68571 29.0809 4.64113 28.6937C3.87834 28.4118 3.1882 27.9629 2.62118 27.3799C2.03664 26.814 1.58711 26.1237 1.30598 25.3603C0.919087 24.3157 0.715067 23.2123 0.702874 22.0985C0.617321 20.2469 0.600098 19.6915 0.600098 14.9996C0.600098 10.3077 0.619015 9.75434 0.702027 7.90126C0.715699 6.78787 0.91997 5.68506 1.30598 4.64064C1.58848 3.87773 2.03738 3.18731 2.62005 2.61956C3.18637 2.03555 3.87683 1.58644 4.64029 1.30549C5.68486 0.918278 6.78835 0.71397 7.90231 0.701539C9.75454 0.616833 10.3108 0.599609 15.0001 0.599609C19.6894 0.599609 20.2454 0.618527 22.0984 0.701539C23.2121 0.715114 24.3152 0.919387 25.3599 1.30549C26.123 1.58681 26.8133 2.03577 27.3799 2.61928C27.9636 3.18603 28.4127 3.87648 28.6942 4.6398C29.0815 5.68435 29.2859 6.78784 29.2984 7.90182C29.3832 9.7549 29.4004 10.3097 29.4004 15.0002C29.4004 19.6906 29.3832 20.2454 29.2984 22.0985C29.285 23.2123 29.0806 24.3156 28.6942 25.3603C28.4019 26.1179 27.9542 26.8059 27.38 27.38C26.8057 27.9541 26.1176 28.4016 25.3599 28.6937C24.3154 29.081 23.2119 29.2854 22.0979 29.298C20.2465 29.3827 19.69 29.3999 14.9995 29.3999C10.3091 29.3999 9.75426 29.3835 7.90287 29.298" fill="url(#paint1_radial_1761_16073)"/>
<path d="M11.4643 15.0609C11.4644 14.3556 11.6736 13.666 12.0655 13.0796C12.4575 12.4931 13.0145 12.036 13.6662 11.7662C14.3179 11.4963 15.035 11.4257 15.7268 11.5634C16.4187 11.7011 17.0541 12.0409 17.5528 12.5397C18.0515 13.0385 18.3911 13.6741 18.5287 14.3659C18.6662 15.0577 18.5955 15.7748 18.3254 16.4265C18.0554 17.0781 17.5982 17.6351 17.0116 18.0269C16.4251 18.4187 15.7355 18.6277 15.0301 18.6276C14.0843 18.6275 13.1773 18.2516 12.5086 17.5827C11.8399 16.9139 11.4642 16.0068 11.4643 15.0609ZM9.53611 15.0609C9.53611 16.1476 9.85833 17.2098 10.462 18.1133C11.0657 19.0167 11.9238 19.7209 12.9277 20.1368C13.9316 20.5526 15.0362 20.6614 16.102 20.4494C17.1677 20.2374 18.1466 19.7141 18.915 18.9458C19.6833 18.1774 20.2066 17.1985 20.4186 16.1328C20.6306 15.067 20.5218 13.9624 20.1059 12.9585C19.6901 11.9546 18.9859 11.0965 18.0824 10.4928C17.179 9.88913 16.1167 9.56691 15.0301 9.56691C14.3086 9.56687 13.5942 9.70896 12.9276 9.98505C12.261 10.2611 11.6554 10.6658 11.1452 11.176C10.635 11.6862 10.2303 12.2918 9.95424 12.9584C9.67816 13.625 9.53607 14.3394 9.53611 15.0609ZM19.4577 9.34922C19.4576 9.60314 19.5328 9.8514 19.6738 10.0626C19.8147 10.2738 20.0152 10.4384 20.2497 10.5357C20.4843 10.633 20.7424 10.6585 20.9915 10.6091C21.2405 10.5597 21.4694 10.4375 21.649 10.258C21.8286 10.0785 21.951 9.84983 22.0006 9.60081C22.0503 9.35179 22.025 9.09363 21.9279 8.859C21.8308 8.62436 21.6664 8.42378 21.4553 8.28261C21.2442 8.14145 20.9961 8.06604 20.7421 8.06593C20.4018 8.06608 20.0754 8.20131 19.8347 8.44193C19.5939 8.68254 19.4586 9.00886 19.4583 9.34922M10.7082 23.7701C10.0297 23.7627 9.35758 23.6385 8.72123 23.4031C8.25975 23.2252 7.84062 22.9526 7.49083 22.603C7.14104 22.2534 6.86834 21.8343 6.69027 21.3729C6.45472 20.7366 6.33056 20.0645 6.32322 19.386C6.27126 18.2583 6.2611 17.9195 6.2611 15.0624C6.2611 12.2052 6.27239 11.8672 6.32322 10.7384C6.33145 10.06 6.45558 9.38803 6.69027 8.75148C6.86813 8.28985 7.14076 7.87062 7.49057 7.52081C7.84038 7.171 8.25961 6.89837 8.72123 6.72051C9.35755 6.48497 10.0297 6.36081 10.7082 6.35346C11.8359 6.30151 12.1747 6.29134 15.0307 6.29134C17.8867 6.29134 18.2258 6.30235 19.3546 6.35374C20.033 6.36197 20.705 6.48611 21.3416 6.7208C21.8032 6.89867 22.2224 7.1713 22.5722 7.52111C22.922 7.87092 23.1947 8.29014 23.3725 8.75176C23.6081 9.38808 23.7322 10.0602 23.7396 10.7387C23.7915 11.8681 23.8017 12.2052 23.8017 15.0626C23.8017 17.92 23.7913 18.2577 23.7396 19.3866C23.7317 20.065 23.6075 20.737 23.3725 21.3735C23.1945 21.8349 22.9218 22.2539 22.572 22.6036C22.2222 22.9532 21.8031 23.2257 21.3416 23.4036C20.7053 23.6392 20.0331 23.7633 19.3546 23.7707C18.2269 23.8226 17.8881 23.8328 15.0307 23.8328C12.1733 23.8328 11.8356 23.8224 10.7082 23.7707M10.6195 4.42696C9.73173 4.44442 8.85337 4.61245 8.02185 4.9239C7.31103 5.19873 6.66548 5.61907 6.12659 6.15796C5.5877 6.69685 5.16736 7.3424 4.89253 8.05322C4.58112 8.88475 4.41309 9.76311 4.39559 10.6509C4.34279 11.7916 4.33093 12.1564 4.33093 15.0621C4.33093 17.9678 4.34307 18.3323 4.39559 19.4733C4.41309 20.361 4.58111 21.2394 4.89253 22.0709C5.16738 22.7817 5.58772 23.4273 6.12661 23.9662C6.66549 24.505 7.31103 24.9254 8.02185 25.2002C8.85341 25.5115 9.73175 25.6796 10.6195 25.6972C11.7608 25.7491 12.125 25.7618 15.0307 25.7618C17.9364 25.7618 18.3009 25.7497 19.4419 25.6972C20.3297 25.6796 21.208 25.5116 22.0395 25.2002C22.7504 24.9254 23.3959 24.505 23.9348 23.9662C24.4737 23.4273 24.894 22.7817 25.1689 22.0709C25.4807 21.2395 25.6487 20.3611 25.6658 19.4733C25.7178 18.3317 25.7296 17.9678 25.7296 15.0621C25.7296 12.1564 25.7175 11.7919 25.6658 10.6509C25.6484 9.7631 25.4803 8.88474 25.1689 8.05322C24.894 7.34253 24.4738 6.69708 23.9351 6.15821C23.3963 5.61934 22.751 5.19892 22.0404 4.9239C21.2089 4.61225 20.3305 4.44421 19.4427 4.42696C18.3018 4.37473 17.9372 4.3623 15.0321 4.3623C12.127 4.3623 11.7616 4.37445 10.6201 4.42696" fill="white"/>
</g>
<defs>
<radialGradient id="paint0_radial_1761_16073" cx="0" cy="0" r="1" gradientUnits="userSpaceOnUse" gradientTransform="translate(2.46391 28.7688) scale(36.5653)">
<stop offset="0.09" stop-color="#FA8F21"/>
<stop offset="0.78" stop-color="#D82D7E"/>
</radialGradient>
<radialGradient id="paint1_radial_1761_16073" cx="0" cy="0" r="1" gradientUnits="userSpaceOnUse" gradientTransform="translate(20.5489 27.8438) scale(32.1778)">
<stop offset="0.64" stop-color="#8C3AAA" stop-opacity="0"/>
<stop offset="1" stop-color="#8C3AAA"/>
</radialGradient>
<clipPath id="clip0_1761_16073">
<rect width="28.8" height="28.8" fill="white" transform="translate(0.600098 0.599609)"/>
</clipPath>
</defs>
</svg>
