<svg width="84" height="69" viewBox="0 0 84 69" fill="none" xmlns="http://www.w3.org/2000/svg">
<path d="M61.1621 20.1374C66.1424 20.1374 70.1798 16.1 70.1798 11.1196C70.1798 6.13925 66.1424 2.10185 61.1621 2.10185C56.1817 2.10185 52.1443 6.13925 52.1443 11.1196C52.1443 16.1 56.1817 20.1374 61.1621 20.1374Z" fill="white"/>
<path d="M81.59 50.6842C80.9446 50.6842 80.3641 51.0563 80.132 51.6266C79.4866 53.2143 77.8203 56.2908 74.5048 56.7279C70.0113 57.322 64.6778 55.2426 63.8447 47.6111C63.3564 43.1722 64.0734 31.2794 64.7598 22.1114C63.6261 22.4836 62.4174 22.6884 61.1608 22.6884C58.7126 22.6884 56.442 21.9236 54.5708 20.6227C53.1913 32.0306 51.3885 49.5847 52.5562 55.2392C54.3318 63.8608 57.678 68.986 67.3992 68.7026C76.3418 68.4397 81.3919 59.6166 83.1197 52.4939C83.345 51.5651 82.5973 50.6807 81.59 50.6807V50.6842Z" fill="white"/>
<path d="M25.9232 0.312547C25.9232 0.312547 14.2762 -0.390847 9.99439 5.52995C7.18082 9.42251 5.80818 14.3531 5.19698 17.2759C4.93065 18.5393 5.68867 19.7788 6.72327 19.7788C7.35496 19.7788 7.93202 19.3042 8.17445 18.5632C8.94613 16.214 11.4353 11.2732 18.6605 11.0683C18.5102 15.1043 17.4551 35.2022 11.2612 43.6463C4.36384 53.0602 -4.21005 61.1834 4.57212 67.1281C13.3509 73.0728 21.6106 61.3814 22.7613 45.3297C23.113 40.4162 23.5023 35.0827 23.871 30.0497C26.9885 33.0886 31.2464 34.9666 35.9448 34.9666C43.5899 34.9666 50.0741 30.0053 52.3653 23.1284C52.6248 21.9504 52.775 19.97 51.6414 17.9759C51.2624 17.3101 50.9619 16.6681 50.7092 16.0501C50.0024 14.5545 49.6029 12.8848 49.6029 11.1195C49.6029 6.17529 52.7102 1.96859 57.0773 0.312547H25.9232ZM36.7062 28.2366C30.8572 28.2366 26.1144 23.4938 26.1144 17.6413C26.1144 11.7922 30.8572 7.04942 36.7097 7.04942C42.5588 7.04942 47.3015 11.7922 47.3015 17.6447C47.3015 23.4938 42.5588 28.2366 36.7062 28.2366Z" fill="white"/>
</svg>
