<svg width="42" height="42" viewBox="0 0 42 42" fill="none" xmlns="http://www.w3.org/2000/svg">
<path d="M21 39.375C31.1482 39.375 39.375 31.1482 39.375 21C39.375 10.8518 31.1482 2.625 21 2.625C10.8518 2.625 2.625 10.8518 2.625 21C2.625 31.1482 10.8518 39.375 21 39.375Z" fill="#0CA0F2"/>
<path d="M25.9017 3.30664C31.7817 5.99989 35.875 11.9219 35.875 18.8125C35.875 28.2363 28.2362 35.875 18.8125 35.875C11.9219 35.875 5.99986 31.7818 3.30661 25.9018C5.45386 33.6665 12.5519 39.375 21 39.375C31.1482 39.375 39.375 31.1483 39.375 21C39.375 12.5519 33.6665 5.45389 25.9017 3.30664Z" fill="#0588E2"/>
<path d="M32.375 33.3025V35.4288C29.2512 37.905 25.2962 39.375 21 39.375C16.7038 39.375 12.7487 37.905 9.625 35.4288V33.3025C9.625 31.1588 10.9288 29.225 12.9238 28.4288L18.375 26.25H23.625L29.0763 28.4288C31.0712 29.225 32.375 31.1588 32.375 33.3025Z" fill="#EFF3F9"/>
<path d="M18.8125 35.8751C15.4297 35.8751 12.2859 34.8785 9.63462 33.181C9.63375 33.2221 9.625 33.2615 9.625 33.3026V35.4289C12.7487 37.9051 16.7038 39.3751 21 39.3751C25.2962 39.3751 29.2512 37.9051 32.375 35.4289V33.3026C32.375 32.1975 32.0241 31.1528 31.4151 30.2856C28.294 33.7113 23.8114 35.8751 18.8125 35.8751Z" fill="#CFE0F3"/>
<path d="M21 24.5C17.6172 24.5 14.875 27.2422 14.875 30.625C14.875 31.108 15.267 31.5 15.75 31.5H26.25C26.733 31.5 27.125 31.108 27.125 30.625C27.125 27.2422 24.3827 24.5 21 24.5Z" fill="#EFF3F9"/>
<path d="M23.625 25.375C23.625 23.9253 22.4497 22.75 21 22.75C19.5503 22.75 18.375 23.9253 18.375 25.375V28.875C18.375 30.3247 19.5503 31.5 21 31.5C22.4497 31.5 23.625 30.3247 23.625 28.875V25.375Z" fill="#F6A28D"/>
<path d="M23.7046 8.75H17.5C17.017 8.75 16.625 9.142 16.625 9.625V10.0931C13.8066 10.5131 12.215 13.559 13.4811 16.1131L15.2539 19.6875L27.6474 19.3296L28.7542 15.435C29.7071 12.0829 27.1889 8.75 23.7046 8.75Z" fill="#0D3B8D"/>
<path d="M23.7046 8.75H23.6005C24.6715 9.54712 25.3742 10.8124 25.3742 12.25V19.3953L27.6474 19.3296L28.7543 15.435C29.7071 12.0829 27.1889 8.75 23.7046 8.75Z" fill="#00286F"/>
<path d="M27.125 18.375V16.625C27.125 15.6581 26.3419 14.875 25.375 14.875H16.625C15.6581 14.875 14.875 15.6581 14.875 16.625V18.375C13.9081 18.375 13.125 19.1581 13.125 20.125C13.125 21.0919 13.9081 21.875 14.875 21.875H14.9397C15.134 23.1753 15.8043 24.3679 16.8455 25.2009L17.8832 26.0312C18.7679 26.7391 19.8669 27.1241 21 27.1241C22.1331 27.1241 23.2321 26.7382 24.1168 26.0312L25.1545 25.2009C26.1957 24.3679 26.8669 23.1753 27.0603 21.875H27.125C28.0919 21.875 28.875 21.0919 28.875 20.125C28.875 19.1581 28.0919 18.375 27.125 18.375Z" fill="#FFCDB4"/>
<path d="M27.125 18.375V16.625C27.125 15.6581 26.3419 14.875 25.375 14.875H24.5V20.0191C24.5 21.2074 24.0275 22.3475 23.1875 23.1875C22.3475 24.0275 21.2074 24.5 20.0191 24.5H18.4818C17.3101 24.5 16.1875 24.0371 15.351 23.219C15.6861 23.9802 16.1805 24.6689 16.8455 25.2017L17.8833 26.0321C18.7679 26.74 19.8669 27.125 21 27.125C22.1331 27.125 23.2321 26.7391 24.1168 26.0321L25.1545 25.2017C26.1958 24.3687 26.8669 23.1761 27.0603 21.8759H27.125C28.0919 21.8759 28.875 21.0927 28.875 20.1259C28.875 19.159 28.0919 18.375 27.125 18.375Z" fill="#F6A28D"/>
<path d="M21 1.75C10.3854 1.75 1.75 10.3854 1.75 21C1.75 31.6146 10.3854 40.25 21 40.25C31.6146 40.25 40.25 31.6146 40.25 21C40.25 10.3854 31.6146 1.75 21 1.75ZM17.5 11.8825V9.625H23.7038C25.0863 9.625 26.3638 10.255 27.195 11.3663C28.0263 12.4688 28.2887 13.8688 27.9125 15.1988L27.7961 15.6117C27.3989 14.6659 26.4635 14 25.375 14H17.8885C17.6348 13.314 17.5 12.6044 17.5 11.8825ZM16.065 14.063C15.2338 14.245 14.5495 14.8199 14.217 15.5837C13.8057 14.6501 13.8233 13.6202 14.2966 12.7137C14.6283 12.0864 15.1393 11.6007 15.7491 11.2919V11.8825C15.7491 12.6219 15.8576 13.3516 16.0641 14.063H16.065ZM14.875 19.25C15.358 19.25 15.75 18.858 15.75 18.375V16.625C15.75 16.1429 16.1429 15.75 16.625 15.75H25.375C25.8571 15.75 26.25 16.1429 26.25 16.625V18.375C26.25 18.858 26.642 19.25 27.125 19.25C27.608 19.25 28 19.6429 28 20.125C28 20.6071 27.6071 21 27.0603 21C26.6271 21 26.2588 21.3176 26.1949 21.7464C26.0304 22.8471 25.4669 23.8315 24.6085 24.5184L23.5699 25.3487C22.1165 26.5107 19.8835 26.5107 18.4301 25.3487L17.3915 24.5184C16.5322 23.8315 15.9688 22.8471 15.8051 21.7464C15.7413 21.3176 15.3081 21 14.875 21C14.3929 21 14 20.6071 14 20.125C14 19.6429 14.3929 19.25 14.875 19.25ZM31.5 34.9668C28.7901 37.009 25.4774 38.276 21.875 38.4554V32.375H26.25C27.2125 32.375 28 31.5875 28 30.625C28 30.0169 27.916 29.4228 27.7664 28.8488L28.7525 29.2425C30.4237 29.9075 31.5 31.5 31.5 33.3025V34.9668ZM24.5 26.8249C24.521 26.8091 24.5446 26.7969 24.5656 26.7811C24.6138 26.8258 24.661 26.8669 24.71 26.9159C25.7075 27.9046 26.25 29.2259 26.25 30.6259H24.0152C24.3154 30.1096 24.5 29.5164 24.5 28.8759V26.8258V26.8249ZM22.75 28.875C22.75 29.8375 21.9625 30.625 21 30.625C20.5362 30.625 20.0988 30.4412 19.7663 30.1087C19.4338 29.7762 19.25 29.3388 19.25 28.875V27.7174C19.8144 27.8941 20.4032 28 21 28C21.5968 28 22.1856 27.895 22.75 27.7174V28.875ZM17.4318 26.7794C17.4536 26.796 17.4773 26.8083 17.5 26.8249V28.875C17.5 29.5033 17.6785 30.0974 17.9848 30.625H15.75C15.75 29.1602 16.3695 27.7629 17.4318 26.7794ZM15.75 32.375H20.125V38.4554C16.5226 38.276 13.2099 37.0081 10.5 34.9668V33.3025C10.5 31.5 11.5763 29.9075 13.2475 29.2425L14.238 28.847C14.0866 29.4219 14 30.0169 14 30.625C14 31.5875 14.7875 32.375 15.75 32.375ZM33.25 33.4766V33.3025C33.25 30.7825 31.7362 28.5513 29.4 27.615L26.6648 26.5177C26.4495 26.222 26.2167 25.9368 25.9525 25.6725C25.9481 25.6681 25.9438 25.6646 25.9394 25.6602C26.8363 24.8596 27.4855 23.8289 27.79 22.6642C28.9161 22.3685 29.7491 21.3421 29.7491 20.125C29.7491 19.3533 29.4096 18.6629 28.8767 18.1825L29.5916 15.6712C30.1254 13.8162 29.7579 11.8562 28.5941 10.3075C27.4216 8.75875 25.6366 7.875 23.7029 7.875H17.4991C16.6171 7.875 15.89 8.53825 15.7727 9.38963C14.4664 9.78162 13.3849 10.668 12.7391 11.9C11.9866 13.3525 11.9691 15.0325 12.6954 16.5025L13.4129 17.9541C12.7138 18.4266 12.2491 19.2202 12.2491 20.1259C12.2491 21.329 13.0629 22.3458 14.2056 22.6546C14.511 23.8298 15.1664 24.8701 16.0738 25.6742C15.8113 25.9341 15.575 26.2141 15.358 26.509L12.5991 27.6159C10.2629 28.5521 8.74912 30.7834 8.74912 33.3034V33.4775C5.51337 30.3004 3.49913 25.8834 3.49913 21.0009C3.5 11.3505 11.3505 3.5 21 3.5C30.6495 3.5 38.5 11.3505 38.5 21C38.5 25.8825 36.4857 30.2995 33.25 33.4766Z" fill="#08105E"/>
</svg>
