<svg width="244" height="244" viewBox="0 0 244 244" fill="none" xmlns="http://www.w3.org/2000/svg">
<path d="M25.4736 158.803C25.182 160.626 25.2549 220.064 25.4736 221.084H87.6816V158.803H25.4736ZM74.0736 207.403H39.2031C38.8872 206.14 38.8386 174.234 39.2031 172.533H73.9764L74.0736 207.403ZM25.4736 24.7158C25.182 26.4897 25.2549 85.9275 25.4736 86.9967H87.6816V24.7158H25.4736ZM74.0736 73.3158H39.2517C38.8872 72.0765 38.79 40.6809 39.2517 38.3481H73.9521L74.0736 73.3158ZM221.623 24.7158H159.585C159.269 26.2953 159.318 85.9032 159.585 86.9967H221.672C221.866 85.3686 221.866 25.785 221.623 24.7158ZM208.161 72.9999C208.161 72.9999 208.161 73.17 207.991 73.3158H173.266V38.3481H207.918V38.4939C207.918 38.8341 207.918 39.1743 207.918 39.5145C208.096 50.7087 208.177 61.8705 208.161 72.9999ZM122.625 207.476C122.941 206.115 122.941 173.845 122.625 172.436H98.568V158.925C99.5643 158.657 134.702 158.585 136.5 158.925V195.375H160.582C160.891 199.922 160.891 204.484 160.582 209.031C152.587 209.031 144.544 209.031 136.282 209.031V221.181H98.568V207.5C100.536 207.5 102.529 207.5 104.521 207.5C106.514 207.5 108.555 207.5 110.572 207.5H122.722L122.625 207.476ZM75.5559 135.961V147.771C71.0752 148.084 66.58 148.133 62.0937 147.917C61.8507 146.896 61.7535 124.419 62.0937 122.159H74.2437V98.0532C78.807 97.7477 83.3856 97.7477 87.9489 98.0532V122.183C90.7677 122.183 93.465 122.183 96.138 122.183H112.322V134.333H124.472V147.917H98.5194C98.5194 146.653 98.5194 145.341 98.5194 144.029V136.18C97.3773 135.767 78.4962 135.645 75.5559 135.961ZM209.716 111.418V123.568H159.488V109.985H171.638C171.638 107.87 171.638 105.878 171.638 103.861V97.8831H185.222V109.863H195.938V97.8831H221.866V111.418H209.716ZM148.626 49.0158V62.6481H136.476V74.7981H122.868V62.6481H98.568V36.8901C103.015 36.7443 107.462 36.8901 111.982 36.8901C112.114 38.2152 112.114 39.5502 111.982 40.8753C111.982 42.2361 111.982 43.6212 111.982 45.0063V49.0644L148.626 49.0158ZM25.3764 147.917V98.0289C29.8834 97.7393 34.4044 97.7393 38.9115 98.0289C38.9115 106.048 38.9115 114.067 38.9115 122.329H51.0615V136.034H38.9115V148.184L25.3764 147.917ZM171.711 183.176H209.522V196.736H185.416V221.036H171.711V183.176Z" fill="#1B2124"/>
<path d="M148.601 111.37H98.689C98.3818 106.856 98.3412 102.329 98.5675 97.8104H135.017V85.6604H148.577L148.601 111.37ZM159.536 134.43H185.173V172.363C180.726 172.363 176.279 172.363 171.638 172.363C171.638 164.198 171.638 156.155 171.638 148.063H159.633C159.318 143.525 159.285 138.972 159.536 134.43ZM196.035 221.06V207.719H220.335H221.355C221.355 207.719 221.525 207.719 221.671 207.889V221.109C220.772 221.23 198.999 221.352 196.035 221.06ZM160.751 184.513H147.313V158.803H160.751V184.513ZM148.625 122.232V147.917H135.139V122.232H148.625ZM221.866 134.455V147.941H196.035V134.455H221.866ZM148.601 38.2268H122.94V24.8618C123.985 24.5702 146.876 24.5216 148.601 24.8618V38.2268ZM112.03 73.4861V86.9969H98.5432V73.5833C103.033 73.2884 107.536 73.2559 112.03 73.4861ZM208.282 172.314V158.803H221.866V172.314H208.282ZM63.2839 98.0534V111.345H49.7974V97.9562C54.2898 97.6802 58.7959 97.7126 63.2839 98.0534ZM112.03 183.225V196.517C107.59 196.844 103.135 196.893 98.689 196.663C98.3868 192.23 98.3381 187.784 98.5432 183.346C103.032 183.041 107.536 183 112.03 183.225ZM49.8217 183.176H63.2596V196.638H49.8217V183.176ZM63.2596 62.624H49.8217V49.1375H63.2596V62.624ZM197.371 49.1375V62.4539C192.931 62.7576 188.477 62.8063 184.031 62.5997C183.703 58.1683 183.654 53.7208 183.885 49.2833C188.373 48.9528 192.877 48.9041 197.371 49.1375Z" fill="#1B2124"/>
</svg>
