<svg width="40" height="40" viewBox="0 0 40 40" fill="none" xmlns="http://www.w3.org/2000/svg">
<g clip-path="url(#clip0_1761_16154)">
<path d="M2.68606 8.8363H1.49203C1.13383 8.8363 0.89502 8.59749 0.89502 8.23928V1.49301C0.89502 1.1348 1.13383 0.895996 1.49203 0.895996H8.2383C8.59651 0.895996 8.83532 1.1348 8.83532 1.49301V2.68704C8.83532 3.04525 8.59651 3.28406 8.2383 3.28406H3.28308V8.23928C3.28308 8.53779 3.04427 8.8363 2.68606 8.8363ZM37.3129 8.8363H38.507C38.8652 8.8363 39.104 8.59749 39.104 8.23928V1.49301C39.104 1.1348 38.8652 0.895996 38.507 0.895996H31.7607C31.4025 0.895996 31.1637 1.1348 31.1637 1.49301V2.68704C31.1637 3.04525 31.4025 3.28406 31.7607 3.28406H36.7159V8.23928C36.7159 8.53779 36.9547 8.8363 37.3129 8.8363ZM2.68606 31.1647H1.49203C1.13383 31.1647 0.89502 31.4035 0.89502 31.7617V38.5079C0.89502 38.8661 1.13383 39.105 1.49203 39.105H8.2383C8.59651 39.105 8.83532 38.8661 8.83532 38.5079V37.3139C8.83532 36.9557 8.59651 36.7169 8.2383 36.7169H3.28308V31.7617C3.28308 31.4632 3.04427 31.1647 2.68606 31.1647ZM37.3129 31.1647H38.507C38.8652 31.1647 39.104 31.4035 39.104 31.7617V38.5079C39.104 38.8661 38.8652 39.105 38.507 39.105H31.7607C31.4025 39.105 31.1637 38.8661 31.1637 38.5079V37.3139C31.1637 36.9557 31.4025 36.7169 31.7607 36.7169H36.7159V31.7617C36.7159 31.4632 36.9547 31.1647 37.3129 31.1647Z" fill="#5178F1"/>
<path d="M7.10397 0.895996V1.0154C7.10397 1.31391 6.86517 1.61241 6.50696 1.61241H1.61144V6.56764C1.61144 6.92585 1.37263 7.16465 1.01442 7.16465H0.89502V1.49301C0.89502 1.1348 1.19353 0.895996 1.49203 0.895996H7.10397ZM37.4323 31.1646V36.8363C37.4323 37.1348 37.1935 37.4333 36.8353 37.4333H31.2234V37.3139C31.2234 36.9557 31.4622 36.7169 31.8204 36.7169H36.7756V31.7617C36.7756 31.4035 37.0741 31.1646 37.3726 31.1646H37.4323ZM37.5517 2.62734V6.98555C37.5517 7.28405 37.3129 7.58256 36.9547 7.58256H36.7159V2.62734H37.5517ZM1.49203 31.1646H1.73084V38.4482H0.89502V31.7617C0.89502 31.4632 1.13383 31.1646 1.49203 31.1646Z" fill="#7D9DFF"/>
<path d="M8.83532 1.49301V2.68704C8.83532 2.98555 8.53681 3.28406 8.2383 3.28406H3.28308V8.23928C3.28308 8.53779 2.98457 8.8363 2.68606 8.8363H1.49203C1.19353 8.8363 0.89502 8.53779 0.89502 8.23928V8.17958H1.96965C2.26815 8.17958 2.56666 7.94077 2.56666 7.58256V2.62734H7.52189C7.8801 2.62734 8.1189 2.32883 8.1189 2.03032V0.895996H8.2383C8.53681 0.895996 8.83532 1.1945 8.83532 1.49301ZM31.1637 2.62734H36.7159V3.28406H31.7607C31.4622 3.28406 31.1637 3.04525 31.1637 2.62734ZM39.104 1.49301V8.23928C39.104 8.53779 38.8055 8.8363 38.507 8.8363H37.3129C37.0144 8.8363 36.7159 8.53779 36.7159 8.23928V8.17958H37.7905C38.0891 8.17958 38.3876 7.94077 38.3876 7.58256V0.895996H38.507C38.8055 0.895996 39.104 1.1945 39.104 1.49301ZM3.28308 36.7169H2.56666V31.1647H2.68606C2.98457 31.1647 3.28308 31.4035 3.28308 31.7617V36.7169ZM8.83532 37.3139V38.5079C8.83532 38.8064 8.53681 39.105 8.2383 39.105H1.49203C1.19353 39.105 0.89502 38.8064 0.89502 38.5079V38.4482H7.52189C7.8801 38.4482 8.1189 38.1497 8.1189 37.8512V36.7169H8.2383C8.53681 36.7169 8.83532 37.0154 8.83532 37.3139ZM39.104 31.7617V38.5079C39.104 38.8064 38.8055 39.105 38.507 39.105H31.7607C31.4025 39.105 31.1637 38.8064 31.1637 38.5079V38.4482H37.7905C38.0891 38.4482 38.3876 38.1497 38.3876 37.8512V31.1647H38.507C38.8055 31.1647 39.104 31.4632 39.104 31.7617Z" fill="#3B60D1"/>
<path d="M21.3129 18.6273V16.0004H16.6561C16.2979 16.0004 16.0591 15.7616 16.0591 15.4034V13.9705C16.0591 13.6123 16.2979 13.3735 16.6561 13.3735H18.6263V10.687H16.6561C16.2979 10.687 16.0591 10.4482 16.0591 10.09V5.97055C16.0591 5.61234 16.2979 5.37354 16.6561 5.37354H18.0293C18.3875 5.37354 18.6263 5.61234 18.6263 5.97055V7.9407H21.3129V5.97055C21.3129 5.61234 21.5517 5.37354 21.9099 5.37354H23.3427C23.7009 5.37354 23.9397 5.61234 23.9397 5.97055V10.09C23.9397 10.4482 23.7009 10.687 23.3427 10.687H21.3726V13.3735H23.3427C23.7009 13.3735 23.9397 13.6123 23.9397 13.9705V16.0004H25.9696C26.3278 16.0004 26.5666 16.2989 26.5666 16.6571V20.7765C26.5666 21.1347 26.3278 21.3735 25.9696 21.3735H23.9994V26.687H26.6263V24.478C26.6263 23.6422 26.5666 22.8064 26.5666 21.9705C26.5666 21.6123 26.8054 21.3735 27.1636 21.3735H29.3129V16.6571C29.3129 16.2989 29.5517 16.0601 29.9099 16.0601H34.0293C34.3875 16.0601 34.6263 16.2989 34.6263 16.6571V18.1497C34.6263 18.5079 34.3875 18.7467 34.0293 18.7467H32.0591V21.3735H34.0293C34.3875 21.3735 34.6263 21.6123 34.6263 21.9705V23.4631C34.6263 23.8213 34.3875 24.0601 34.0293 24.0601H29.3726V26.7467H34.0293C34.3875 26.7467 34.6263 26.9855 34.6263 27.3437V34.1497C34.6263 34.5079 34.3875 34.7467 34.0293 34.7467H32.5964C32.2382 34.7467 31.9994 34.5079 31.9994 34.1497V29.4929H29.3726V34.1497C29.3726 34.5079 29.1338 34.7467 28.7756 34.7467H24.5964C24.2382 34.7467 23.9994 34.5079 23.9994 34.1497V32.7168C23.9994 32.3586 24.2382 32.1198 24.5964 32.1198H26.6263V29.4929H21.3726V34.1497C21.3726 34.5079 21.1338 34.7467 20.7756 34.7467H19.2233C18.8651 34.7467 18.6263 34.5079 18.6263 34.1497V32.1198H16.5964C16.2382 32.1198 15.9994 31.881 15.9994 31.5228V30.0303C15.9994 29.672 16.2382 29.4332 16.5964 29.4332H18.5666V27.4034C18.5666 27.0452 18.8054 26.8064 19.1636 26.8064H21.2532V21.4332H18.5666V26.2094C18.5666 26.5676 18.3278 26.8064 17.9696 26.8064H16.5367C16.1785 26.8064 15.9397 26.5676 15.9397 26.2094V21.4332H13.2532V23.4034C13.2532 23.7616 13.0144 24.0004 12.6561 24.0004H5.90988C5.55167 24.0004 5.31287 23.7616 5.31287 23.4034V16.5974C5.31287 16.2392 5.55167 16.0004 5.90988 16.0004H10.0293C10.3875 16.0004 10.6263 16.2392 10.6263 16.5974V18.1497C10.6263 18.5079 10.3875 18.7467 10.0293 18.7467H7.99943V21.3138H10.5666V19.2243C10.5666 18.8661 10.8054 18.6273 11.1636 18.6273H21.3129Z" fill="black"/>
<path d="M5.91 26.7468H12.6563C13.0145 26.7468 13.2533 26.9856 13.2533 27.3438V34.0901C13.2533 34.4483 13.0145 34.6871 12.6563 34.6871H5.91C5.55179 34.6871 5.31299 34.4483 5.31299 34.0901V27.3438C5.31299 27.0453 5.6115 26.7468 5.91 26.7468ZM10.6264 29.4334H8.05926V32.0005H10.6264V29.4334ZM5.91 5.31396H12.6563C13.0145 5.31396 13.2533 5.55277 13.2533 5.91098V12.7169C13.2533 13.0752 13.0145 13.314 12.6563 13.314H5.91C5.55179 13.314 5.31299 13.0752 5.31299 12.7169V5.91098C5.31299 5.61247 5.6115 5.31396 5.91 5.31396ZM7.99956 10.6274H10.5667V8.06023H7.99956V10.6274ZM27.3428 5.31396H34.0891C34.4473 5.31396 34.6861 5.55277 34.6861 5.91098V12.7169C34.6861 13.0752 34.4473 13.314 34.0891 13.314H27.3428C26.9846 13.314 26.7458 13.0752 26.7458 12.7169V5.91098C26.7458 5.55277 26.9846 5.31396 27.3428 5.31396ZM31.9996 8.00053H29.4324V10.5677H31.9996V8.00053Z" fill="black"/>
<path d="M12.5966 20.6572V22.6871C12.5966 23.0453 12.2981 23.2841 11.9996 23.2841H5.31299V23.4035C5.31299 23.702 5.6115 24.0005 5.91 24.0005H12.716C13.0145 24.0005 13.313 23.702 13.313 23.4035V21.4334H15.9996V20.717H12.5966V20.6572ZM16.0593 9.97068V10.0901C16.0593 10.3886 16.3578 10.6871 16.6563 10.6871H18.6264V9.97068H16.0593ZM16.0593 31.3438V31.4632C16.0593 31.7617 16.2981 32.0602 16.6563 32.0602H18.6861V31.3438H16.0593ZM18.0294 5.37367H17.91V7.94083H18.6264V5.97068C18.6264 5.61247 18.3876 5.37367 18.0294 5.37367ZM16.0593 15.2841V15.4035C16.0593 15.702 16.3578 16.0005 16.6563 16.0005H21.313V15.2841H16.0593ZM17.91 20.6572V25.4334C17.91 25.7319 17.6115 26.0304 17.313 26.0304H15.9996V26.1498C15.9996 26.4483 16.2981 26.7468 16.5966 26.7468H18.0294C18.3279 26.7468 18.6264 26.4483 18.6264 26.1498V21.3737H21.313V20.6572H17.91ZM23.3428 5.37367H23.2234V9.37367C23.2234 9.73188 22.9249 9.97068 22.6264 9.97068H20.6563V13.3737H21.3727V10.6871H23.3428C23.6413 10.6871 23.9399 10.4483 23.9399 10.0901V5.97068C23.9399 5.61247 23.701 5.37367 23.3428 5.37367ZM23.4025 13.314H23.2831V15.9408H23.9996V13.911C23.9996 13.6125 23.701 13.314 23.4025 13.314ZM20.6563 28.7169V33.3737C20.6563 33.6722 20.4175 33.9707 20.0593 33.9707H18.6264V34.0901C18.6264 34.3886 18.9249 34.6871 19.2234 34.6871H20.7757C21.1339 34.6871 21.3727 34.3886 21.3727 34.0901V29.4334H26.6264V28.7169H20.6563ZM26.0294 15.9408H25.91V20.0005C25.91 20.3587 25.6115 20.5975 25.313 20.5975H23.3428V26.6274H24.0593V21.314H26.0294C26.3279 21.314 26.6264 21.0752 26.6264 20.717V16.5378C26.6264 16.2393 26.3279 15.9408 26.0294 15.9408ZM28.6563 28.7169V33.3737C28.6563 33.7319 28.4175 33.9707 28.0593 33.9707H23.9996V34.0901C23.9996 34.3886 24.2384 34.6871 24.5966 34.6871H28.7757C29.0742 34.6871 29.3727 34.3886 29.3727 34.0901V29.4334H31.9996V28.7169H28.6563ZM34.0294 21.314H33.91V22.6871C33.91 22.9856 33.6712 23.2841 33.313 23.2841H28.6563V26.6871H29.3727V24.0005H34.0294C34.3876 24.0005 34.6264 23.702 34.6264 23.4035V21.911C34.6264 21.6125 34.3876 21.314 34.0294 21.314ZM34.0891 16.0005H33.9697V17.3737C33.9697 17.6722 33.7309 17.9707 33.3727 17.9707H31.4025V21.314H32.119V18.6871H34.0891C34.4473 18.6871 34.6861 18.3886 34.6861 18.0901V16.5975C34.6861 16.299 34.3876 16.0005 34.0891 16.0005ZM34.0891 26.6871H33.9697V33.3737C33.9697 33.7319 33.6712 33.9707 33.3727 33.9707H32.0593V34.0901C32.0593 34.4483 32.3578 34.6871 32.6563 34.6871H34.0891C34.3876 34.6871 34.6861 34.4483 34.6861 34.0901V27.2841C34.6861 26.9856 34.3876 26.6871 34.0891 26.6871ZM10.6264 16.5975V18.0901C10.6264 18.4483 10.3876 18.6871 10.0294 18.6871H7.99956V21.2543H7.28314V17.9707H9.91V16.0005H10.0294C10.3279 16.0005 10.6264 16.299 10.6264 16.5975ZM12.6563 26.7468H12.5369V33.3737C12.5369 33.7319 12.2981 33.9707 11.9399 33.9707H5.31299V34.0901C5.31299 34.4483 5.55179 34.6871 5.91 34.6871H12.6563C13.0145 34.6871 13.2533 34.4483 13.2533 34.0901V27.3438C13.2533 27.0453 13.0145 26.7468 12.6563 26.7468ZM12.6563 5.31396H12.5369V12.0005C12.5369 12.299 12.2981 12.5975 11.9399 12.5975H5.31299V12.7169C5.31299 13.0752 5.6115 13.314 5.91 13.314H12.6563C12.9548 13.314 13.2533 13.0752 13.2533 12.7169V5.91098C13.2533 5.61247 13.0145 5.31396 12.6563 5.31396ZM34.0891 5.31396H33.9697V12.0005C33.9697 12.299 33.7309 12.5975 33.3727 12.5975H26.7458V12.7169C26.7458 13.0752 26.9846 13.314 27.3428 13.314H34.0891C34.3876 13.314 34.6861 13.0752 34.6861 12.7169V5.91098C34.6861 5.61247 34.3876 5.31396 34.0891 5.31396Z" fill="#4F5465"/>
<path d="M37.9698 23.1048V24.1795C37.9698 24.5377 37.731 24.7765 37.3728 24.7765H2.62656C2.26835 24.7765 2.02954 24.5377 2.02954 24.1795V23.1048C2.02954 22.7466 2.26835 22.5078 2.62656 22.5078H37.3728C37.6713 22.5078 37.9698 22.8063 37.9698 23.1048Z" fill="#4774FF"/>
<path d="M37.9698 23.1048V24.1795C37.9698 24.478 37.6713 24.7765 37.3728 24.7765H2.62656C2.32805 24.7765 2.08924 24.5974 2.02954 24.2989H35.5818C36.5967 24.2989 37.3728 23.5227 37.3728 22.5078C37.731 22.5675 37.9698 22.8063 37.9698 23.1048Z" fill="#4774FF"/>
<path d="M16.179 23.3437C16.179 23.5825 15.9999 23.7616 15.7611 23.7616H6.74616C6.50735 23.7616 6.32825 23.5825 6.32825 23.3437C6.32825 23.1049 6.50735 22.9258 6.74616 22.9258H15.8208C15.9999 22.9258 16.179 23.1049 16.179 23.3437ZM22.0297 23.3437C22.0297 23.5825 21.8506 23.7616 21.6118 23.7616H18.0297C17.7909 23.7616 17.6118 23.5825 17.6118 23.3437C17.6118 23.1049 17.7909 22.9258 18.0297 22.9258H21.6118C21.8506 22.9258 22.0297 23.1049 22.0297 23.3437Z" fill="#5D85FF"/>
</g>
<defs>
<clipPath id="clip0_1761_16154">
<rect width="40" height="40" fill="white"/>
</clipPath>
</defs>
</svg>
