<svg width="18" height="19" viewBox="0 0 18 19" fill="none" xmlns="http://www.w3.org/2000/svg">
<path d="M9.0001 0.620117C4.36113 0.620117 0.600098 4.38115 0.600098 9.02012C0.600098 13.6591 4.36113 17.4201 9.0001 17.4201C13.6391 17.4201 17.4001 13.6591 17.4001 9.02012C17.4001 4.38115 13.6391 0.620117 9.0001 0.620117ZM9.01094 14.8622C5.72352 14.9538 2.95697 11.9345 3.15229 8.7256C3.16902 8.45065 2.90721 8.31225 2.63236 8.29392C1.90616 8.30476 1.68397 7.25883 2.36681 6.98244L4.01971 6.28334C4.30152 6.16954 4.63752 6.25625 4.82719 6.50012L5.91107 7.94167C6.44216 8.66786 5.37455 9.46992 4.82177 8.76541C4.72261 8.63386 4.51945 8.68804 4.51099 8.85257C4.34684 12.0472 7.81947 14.501 10.821 13.1117C11.1678 12.96 11.5689 13.1117 11.726 13.4531C12.1704 14.6617 9.76965 14.8297 9.01094 14.8622ZM15.9911 10.1636C16.1374 10.5104 15.9748 10.9115 15.628 11.0578C15.5863 11.0706 14.9546 11.3453 14.4422 11.5573C14.066 11.713 13.4208 11.8536 13.1676 11.5347L12.0783 10.0986C11.8561 9.79508 11.9157 9.36695 12.2138 9.14476C12.5118 8.91715 12.94 8.97676 13.1676 9.27483C13.2651 9.40421 13.4647 9.34961 13.4706 9.18769C13.5148 7.96355 13.0603 6.74028 12.165 5.84979C10.8644 4.54373 8.85377 4.17521 7.16835 4.9285C6.82152 5.08025 6.42048 4.9285 6.26874 4.58167C6.117 4.24025 6.26874 3.83379 6.61016 3.68205C8.81042 2.70115 11.428 3.18347 13.1296 4.88515C14.3799 6.13031 14.9682 7.87187 14.8064 9.57995C14.7914 9.73834 14.9502 9.86203 15.0969 9.8005C15.4437 9.65418 15.8447 9.81676 15.9911 10.1636Z" fill="url(#paint0_linear_1761_16621)"/>
<defs>
<linearGradient id="paint0_linear_1761_16621" x1="9.0001" y1="0.620117" x2="9.0001" y2="17.4201" gradientUnits="userSpaceOnUse">
<stop stop-color="#4285FA"/>
<stop offset="1" stop-color="#8DB5FA"/>
</linearGradient>
</defs>
</svg>
