<svg width="29" height="29" viewBox="0 0 29 29" fill="none" xmlns="http://www.w3.org/2000/svg">
<g clip-path="url(#clip0_1761_16086)">
<path d="M28.8 14.4C28.8 6.4471 22.3529 0 14.4 0C6.4471 0 0 6.4471 0 14.4C0 22.3529 6.4471 28.8 14.4 28.8C22.3529 28.8 28.8 22.3529 28.8 14.4Z" fill="#419FD9"/>
<path d="M28.8 14.4C28.8 6.4471 22.3529 0 14.4 0C6.4471 0 0 6.4471 0 14.4C0 22.3529 6.4471 28.8 14.4 28.8C22.3529 28.8 28.8 22.3529 28.8 14.4Z" fill="url(#paint0_linear_1761_16086)"/>
<path d="M6.47234 14.0829C10.6599 12.2201 13.4523 10.9921 14.8495 10.3987C18.8386 8.70457 19.6676 8.41027 20.2079 8.40049C20.3267 8.39845 20.5924 8.42851 20.7645 8.57107C20.9098 8.69149 20.9498 8.85415 20.9689 8.96827C20.9881 9.08245 21.0119 9.34249 20.9929 9.54565C20.7768 11.8648 19.8414 17.4927 19.3655 20.0902C19.1641 21.1892 18.7677 21.5578 18.3838 21.5938C17.5497 21.6722 16.9162 21.031 16.1083 20.4902C14.844 19.6441 14.1298 19.1173 12.9025 18.2916C11.4843 17.3374 12.4037 16.8129 13.212 15.9557C13.4235 15.7315 17.0989 12.3181 17.17 12.0085C17.1789 11.9697 17.1872 11.8253 17.1032 11.7491C17.0192 11.6729 16.8952 11.699 16.8058 11.7197C16.679 11.7491 14.6593 13.1121 10.7467 15.8087C10.1734 16.2107 9.65414 16.4065 9.1889 16.3962C8.67602 16.3849 7.68944 16.1002 6.956 15.8567C6.05642 15.5581 5.34143 15.4003 5.40368 14.8933C5.43611 14.6291 5.79232 14.359 6.47234 14.0829Z" fill="white"/>
</g>
<defs>
<linearGradient id="paint0_linear_1761_16086" x1="14.4" y1="0" x2="14.4" y2="28.5864" gradientUnits="userSpaceOnUse">
<stop stop-color="#2AABEE"/>
<stop offset="1" stop-color="#229ED9"/>
</linearGradient>
<clipPath id="clip0_1761_16086">
<rect width="28.8" height="28.8" fill="white"/>
</clipPath>
</defs>
</svg>
