<svg width="40" height="40" viewBox="0 0 40 40" fill="none" xmlns="http://www.w3.org/2000/svg">
<path d="M33.6666 16.9485L16.2633 34.3515C15.5828 35.032 14.4795 35.032 13.799 34.3515L5.64818 26.2007C4.96769 25.5202 4.9677 24.4169 5.6482 23.7364L23.0515 6.33338C23.3645 6.02038 23.8719 6.02038 24.1849 6.33338L33.6666 15.815C33.9796 16.128 33.9796 16.6355 33.6666 16.9485Z" fill="#ED524E"/>
<path d="M22.1914 25.4016L9.13408 38.4587C8.64734 38.9455 7.85817 38.9455 7.37143 38.4587L1.54132 32.6286C1.05458 32.1419 1.05459 31.3527 1.54133 30.866L14.5986 17.8088C16.6954 15.7122 20.0948 15.7122 22.1914 17.8088C24.2881 19.9055 24.2881 23.3049 22.1914 25.4016Z" fill="#E9E9FF"/>
<path d="M34.1818 14.6052L33.3192 15.4678L24.5323 6.68093L25.3949 5.81834C25.6228 5.5905 25.9922 5.5905 26.22 5.81834L34.1818 13.7801C34.4096 14.0079 34.4096 14.3773 34.1818 14.6052Z" fill="#4F5D99"/>
<path d="M38.6144 8.3228L33.6693 13.2678L26.7327 6.33117L31.6778 1.38615C31.9569 1.10696 32.4096 1.10696 32.6888 1.38615L38.6144 7.31178C38.8936 7.59096 38.8936 8.04361 38.6144 8.3228Z" fill="#E9E9FF"/>
<path d="M35.4504 4.15017L30.002 9.59863L30.4021 9.99877L35.8506 4.55031L35.4504 4.15017Z" fill="#CFCFFF"/>
<path d="M36.0557 9.04264L34.8954 10.2029C34.8195 10.2789 34.6994 10.2788 34.6234 10.2028L33.4633 9.04264C33.3873 8.96666 33.3873 8.84673 33.4633 8.77074L34.6235 7.61047C34.6995 7.53449 34.8195 7.53449 34.8955 7.61047L36.0556 8.77064C36.1316 8.84663 36.1317 8.96666 36.0557 9.04264ZM32.4554 5.44229L31.2951 6.60256C31.2191 6.67854 31.0991 6.67844 31.0231 6.60246L29.8629 5.44229C29.7869 5.3663 29.7869 5.24637 29.8629 5.17038L31.0232 4.01011C31.0992 3.93413 31.2191 3.93413 31.2951 4.01011L32.4553 5.17029C32.5312 5.24627 32.5313 5.3663 32.4554 5.44229Z" fill="#CFCFFF"/>
<path d="M19.4896 24.1345C21.0134 23.6574 21.8619 22.0355 21.3849 20.5121C20.9078 18.9886 19.2858 18.1403 17.762 18.6175C16.2382 19.0946 15.3897 20.7165 15.8667 22.24C16.3438 23.7634 17.9658 24.6117 19.4896 24.1345Z" fill="#4F5D99"/>
<path d="M16.0812 29.4489L15.6292 29.9009C15.5531 29.977 15.4292 29.981 15.3492 29.901L10.0966 24.6484C10.0206 24.5724 10.0206 24.4445 10.0967 24.3684L10.5487 23.9164C10.6247 23.8404 10.7528 23.8403 10.8287 23.9163L16.0813 29.1689C16.1613 29.2489 16.1572 29.3729 16.0812 29.4489ZM14.231 31.2991L13.779 31.7511C13.7029 31.8272 13.579 31.8312 13.499 31.7512L8.24642 26.4986C8.17043 26.4226 8.17043 26.2947 8.24652 26.2186L8.69852 25.7666C8.7745 25.6906 8.90255 25.6905 8.97853 25.7665L14.2311 31.0191C14.3111 31.0991 14.307 31.2231 14.231 31.2991ZM12.3808 33.1493L11.9288 33.6013C11.8527 33.6773 11.7288 33.6813 11.6488 33.6014L6.39621 28.3488C6.32022 28.2728 6.32023 28.1449 6.39631 28.0688L6.84831 27.6168C6.9243 27.5408 7.05234 27.5407 7.12832 27.6167L12.3809 32.8693C12.4609 32.9492 12.4568 33.0733 12.3808 33.1493Z" fill="#CFCFFF"/>
<path d="M10.5306 34.9997L10.0786 35.4517C10.0025 35.5278 9.87856 35.5318 9.79857 35.4518L4.54599 30.1992C4.47001 30.1232 4.47001 29.9953 4.54609 29.9192L4.99809 29.4672C5.07408 29.3912 5.20212 29.3911 5.2781 29.4671L10.5307 34.7197C10.6107 34.7997 10.6066 34.9237 10.5306 34.9997Z" fill="#CFCFFF"/>
</svg>
