<svg width="40" height="40" viewBox="0 0 40 40" fill="none" xmlns="http://www.w3.org/2000/svg">
<path d="M37.3866 9.6331C36.9728 9.46066 36.4788 9.48602 36.102 9.70918L27.4562 14.7809C27.1289 14.9736 26.9375 15.2779 26.9375 15.6076V23.7224C26.9375 24.0521 27.1289 24.3564 27.4562 24.5491L36.102 29.6208C36.3182 29.7476 36.5652 29.8085 36.8184 29.8085C37.0099 29.8085 37.2075 29.773 37.3866 29.6969C37.8003 29.5245 38.0535 29.1745 38.0535 28.7941V10.5359C38.0535 10.1555 37.7942 9.80554 37.3866 9.6331Z" fill="#4257FF"/>
<path d="M23.2321 8H7.17559C3.76491 8 1 10.2707 1 13.0717V26.2583C1 29.0593 3.76491 31.33 7.17559 31.33H23.2321C26.6428 31.33 29.4077 29.0593 29.4077 26.2583V13.0717C29.4077 10.2707 26.6428 8 23.2321 8Z" fill="#CED3ED"/>
<path d="M14.5863 26.2583H8.41071C7.73139 26.2583 7.17559 25.8018 7.17559 25.2439C7.17559 24.686 7.73139 24.2296 8.41071 24.2296H14.5863C15.2656 24.2296 15.8214 24.686 15.8214 25.2439C15.8214 25.8018 15.2656 26.2583 14.5863 26.2583Z" fill="#4257FF"/>
</svg>
